<svg width="25" height="24" viewBox="0 0 25 24" fill="none" xmlns="http://www.w3.org/2000/svg">
<path d="M18.5 2H6.5C5.39543 2 4.5 2.89543 4.5 4V20C4.5 21.1046 5.39543 22 6.5 22H18.5C19.6046 22 20.5 21.1046 20.5 20V4C20.5 2.89543 19.6046 2 18.5 2Z" stroke="black" stroke-width="1.5" stroke-linecap="round" stroke-linejoin="round"/>
<path d="M2.5 6.74112H6.5" stroke="black" stroke-width="1.5" stroke-linecap="round" stroke-linejoin="round"/>
<path d="M2.5 17.0006H6.5" stroke="black" stroke-width="1.5" stroke-linecap="round" stroke-linejoin="round"/>
<path d="M9.11328 16.4515L9.46428 15.1749C10.6257 10.9511 15.6008 10.9511 16.7622 15.1749L17.1132 16.4515" stroke="black" stroke-width="1.5" stroke-linecap="round" stroke-linejoin="round"/>
<path d="M13.1138 11.9929C14.3411 11.9929 15.336 10.998 15.336 9.77068C15.336 8.54338 14.3411 7.54846 13.1138 7.54846C11.8865 7.54846 10.8916 8.54338 10.8916 9.77068C10.8916 10.998 11.8865 11.9929 13.1138 11.9929Z" stroke="black" stroke-width="1.5" stroke-linecap="round" stroke-linejoin="bevel"/>
</svg>
