<svg width="22" height="22" viewBox="0 0 22 22" fill="none" xmlns="http://www.w3.org/2000/svg">
<path fill-rule="evenodd" clip-rule="evenodd" d="M10.0002 2.19001C10.0692 1.97096 10.2063 1.77965 10.3916 1.64384C10.5768 1.50803 10.8005 1.43481 11.0302 1.43481C11.2598 1.43481 11.4835 1.50803 11.6688 1.64384C11.854 1.77965 11.9911 1.97096 12.0602 2.19001L13.9202 7.91001H19.9202C20.1581 7.90101 20.3923 7.97015 20.5872 8.10684C20.7821 8.24354 20.9269 8.44029 20.9995 8.66702C21.072 8.89376 21.0684 9.13801 20.989 9.36246C20.9097 9.58691 20.7591 9.77922 20.5602 9.91001L15.6902 13.44L17.5502 19.17C17.6237 19.3883 17.6256 19.6243 17.5555 19.8437C17.4853 20.0631 17.3469 20.2544 17.1604 20.3895C16.9739 20.5246 16.749 20.5966 16.5187 20.5949C16.2884 20.5932 16.0647 20.5179 15.8802 20.38L11.0002 16.81L6.13017 20.35C5.94567 20.4879 5.72193 20.5632 5.49161 20.5649C5.26129 20.5666 5.03645 20.4946 4.84994 20.3595C4.66342 20.2244 4.525 20.0331 4.45487 19.8137C4.38475 19.5943 4.38661 19.3583 4.46017 19.14L6.32017 13.41L1.45017 9.88001C1.25125 9.74922 1.10062 9.55691 1.02129 9.33246C0.941956 9.10801 0.938287 8.86376 1.01084 8.63702C1.0834 8.41029 1.22818 8.21354 1.42308 8.07684C1.61798 7.94015 1.85228 7.87101 2.09017 7.88001H8.09017L10.0002 2.19001Z" stroke="black" stroke-width="1.5" stroke-linecap="round" stroke-linejoin="round"/>
</svg>
